<svg width="25" height="25" viewBox="0 0 25 25" fill="none" xmlns="http://www.w3.org/2000/svg">
<g clip-path="url(#clip0_0_733)">
<path d="M18.585 19.215H15.92V15.038C15.92 14.042 15.9 12.76 14.53 12.76C13.141 12.76 12.929 13.844 12.929 14.965V19.215H10.263V10.626H12.823V11.796H12.858C13.216 11.122 14.086 10.409 15.386 10.409C18.086 10.409 18.586 12.187 18.586 14.5V19.215H18.585ZM7.253 9.45098C7.04956 9.45124 6.84806 9.41135 6.66006 9.33358C6.47207 9.25582 6.30127 9.14172 6.15746 8.99781C6.01365 8.85391 5.89965 8.68304 5.82201 8.49499C5.74437 8.30694 5.7046 8.10542 5.705 7.90198C5.7052 7.59581 5.79618 7.29658 5.96644 7.04212C6.1367 6.78767 6.37859 6.58941 6.66153 6.47243C6.94447 6.35545 7.25574 6.32499 7.55598 6.38492C7.85622 6.44484 8.13196 6.59245 8.34831 6.80908C8.56466 7.02571 8.71191 7.30164 8.77145 7.60196C8.83099 7.90228 8.80013 8.21351 8.68278 8.49629C8.56543 8.77908 8.36687 9.02072 8.11219 9.19065C7.85751 9.36058 7.55917 9.45117 7.253 9.45098ZM8.589 19.215H5.916V10.626H8.59V19.215H8.589ZM19.92 3.87598H4.579C3.843 3.87598 3.25 4.45598 3.25 5.17298V20.579C3.25 21.296 3.844 21.876 4.578 21.876H19.916C20.65 21.876 21.25 21.296 21.25 20.579V5.17298C21.25 4.45598 20.65 3.87598 19.916 3.87598H19.92Z" fill="white"/>
</g>
<defs>
<clipPath id="clip0_0_733">
<rect width="24" height="24" fill="white" transform="translate(0.25 0.875977)"/>
</clipPath>
</defs>
</svg>
