<svg width="24" height="25" viewBox="0 0 24 25" fill="none" xmlns="http://www.w3.org/2000/svg">
<g clip-path="url(#clip0_0_738)">
<path d="M13.37 2.9703C10.9773 2.64115 8.54625 3.18885 6.52583 4.51226C4.50541 5.83566 3.03205 7.8454 2.3778 10.1704C1.72356 12.4953 1.93261 14.9785 2.96637 17.1614C4.00012 19.3442 5.78876 21.0793 8.002 22.0463C7.94215 21.2781 7.99709 20.5053 8.165 19.7533C8.35 18.9143 9.461 14.2903 9.461 14.2903C9.23977 13.7944 9.12921 13.2563 9.137 12.7133C9.137 11.2283 9.994 10.1203 11.06 10.1203C11.2515 10.1175 11.4414 10.156 11.6167 10.2331C11.792 10.3103 11.9486 10.4242 12.076 10.5673C12.2033 10.7104 12.2983 10.8792 12.3546 11.0623C12.4108 11.2454 12.427 11.4384 12.402 11.6283C12.402 12.5283 11.824 13.8903 11.522 15.1683C11.4623 15.4027 11.4585 15.6478 11.5109 15.8839C11.5634 16.12 11.6705 16.3405 11.8238 16.5276C11.977 16.7147 12.1721 16.8632 12.3932 16.9611C12.6144 17.0591 12.8555 17.1036 13.097 17.0913C14.995 17.0913 16.267 14.6603 16.267 11.7903C16.267 9.5903 14.81 7.9423 12.124 7.9423C11.4814 7.91733 10.8404 8.02322 10.2399 8.25355C9.63949 8.48388 9.09212 8.83384 8.63105 9.28219C8.16999 9.73053 7.80486 10.2679 7.55783 10.8617C7.31079 11.4554 7.18701 12.0932 7.194 12.7363C7.16537 13.4496 7.39551 14.1493 7.842 14.7063C7.92544 14.7686 7.98636 14.8563 8.01558 14.9562C8.0448 15.0562 8.04074 15.1629 8.004 15.2603C7.958 15.4443 7.842 15.8833 7.796 16.0443C7.78644 16.0989 7.76418 16.1505 7.73103 16.1949C7.69787 16.2393 7.65475 16.2754 7.60513 16.3001C7.55552 16.3248 7.50079 16.3375 7.44536 16.3372C7.38993 16.3369 7.33534 16.3236 7.286 16.2983C5.902 15.7443 5.25 14.2213 5.25 12.4823C5.25 9.6353 7.634 6.2273 12.404 6.2273C16.2 6.2273 18.724 9.0043 18.724 11.9743C18.724 15.8833 16.547 18.8223 13.33 18.8223C12.8492 18.8377 12.3723 18.7316 11.9433 18.5138C11.5144 18.296 11.1473 17.9736 10.876 17.5763C10.876 17.5763 10.298 19.8923 10.184 20.3303C9.9513 21.087 9.60791 21.8051 9.165 22.4613C10.088 22.7413 11.047 22.8813 12.011 22.8773C13.3246 22.8783 14.6255 22.6203 15.8392 22.1179C17.0529 21.6155 18.1556 20.8786 19.0841 19.9494C20.0126 19.0202 20.7487 17.9171 21.2503 16.703C21.7518 15.4889 22.009 14.1879 22.007 12.8743C22.0058 10.4593 21.1308 8.12629 19.5436 6.30608C17.9565 4.48586 15.7643 3.30136 13.372 2.9713L13.37 2.9703Z" fill="white"/>
</g>
<defs>
<clipPath id="clip0_0_738">
<rect width="24" height="24" fill="white" transform="translate(0 0.875977)"/>
</clipPath>
</defs>
</svg>
